# xmcd
#
# Track frame offsets: 
#        150
#        8843
#        20671
#        29358
#        41541
#        49964
#        65035
#        75679
#        79420
#        90922
#        104538
#        112868
#        124217
#
# Disc length: 1880 seconds
#
# Revision: 0
# Processed by: cddbd v1.5.2PL0 Copyright (c) Steve Scherf et al.
# Submitted via: ExactAudioCopy v0.99pb3
#
DISCID=a407560d
DTITLE=The Legend! - The Legend! - Everett True Connection
DYEAR=2001
DGENRE=3 Acre Floor
TTITLE0=Olympia Pt 1
TTITLE1=Spokane
TTITLE2=Liverpool, England
TTITLE3=Portland
TTITLE4=Seattle Pt 1
TTITLE5=Seattle Pt 2
TTITLE6=Seattle Pt 3
TTITLE7=Seatac Airport
TTITLE8=Brighton, England
TTITLE9=Olympia Pt 2
TTITLE10=Tacoma
TTITLE11=Ellensburg
TTITLE12=Melbourne
EXTD=
EXTT0=
EXTT1=
EXTT2=
EXTT3=
EXTT4=
EXTT5=
EXTT6=
EXTT7=
EXTT8=
EXTT9=
EXTT10=
EXTT11=
EXTT12=
PLAYORDER=
